<?xml version="1.0" encoding="iso-8859-1"?>
<!-- Generator: Adobe Illustrator 19.0.0, SVG Export Plug-In . SVG Version: 6.00 Build 0)  -->
<svg version="1.1" id="Layer_1" xmlns="http://www.w3.org/2000/svg" xmlns:xlink="http://www.w3.org/1999/xlink" x="0px" y="0px"
	 viewBox="0 0 488.019 488.019" style="enable-background:new 0 0 488.019 488.019;" xml:space="preserve">
<g>
	<g>
		<path d="M396.519,233.558L396.519,233.558c-12.1,0-23.9,2.4-34.7,6.9l-47.2-81.8v-38.9c0-0.3,0-0.5,0-0.8h10.4c5.5,0,10-4.5,10-10
			s-4.5-10-10-10h-61c-5.5,0-10,4.5-10,10s4.5,10,10,10h30.7c0,0.3,0,0.5,0,0.8v31.5h-153.8l10.6-50.2c0.9-4.4-1.2-8.9-5.2-11
			l-40.7-20.8c-4.9-2.5-10.9-0.6-13.5,4.4c-2.5,4.9-0.6,10.9,4.4,13.5l33.9,17.3l-27.5,130c-4.1-0.6-8.2-0.8-12.4-0.8
			c-24.2,0-47.1,9.6-64.2,27.1c-17.4,17.7-26.8,41.2-26.3,66.1c0,52.2,40.2,93,91.4,93c24.4,0,47.4-9.6,64.6-27.1
			c17.3-17.5,26.8-41,26.8-66c0-40-25.2-74.3-60.4-87.4l12.1-57l111.5,160.9c1.9,2.7,4.9,4.3,8.2,4.3h53.2c9,41.9,45,72.3,89.2,72.3
			c24.4,0,47.4-9.6,64.6-27.1c17.3-17.5,26.8-41,26.8-66C487.919,275.258,446.919,233.558,396.519,233.558z M162.719,326.658
			c0,40.3-32,73.1-71.4,73.1c-40,0-71.4-32.1-71.4-73.1c0-0.1,0-0.1,0-0.2c-0.3-19.5,7-37.9,20.6-51.8c13.4-13.6,31.1-21.1,50-21.1
			c2.8,0,5.5,0.2,8.2,0.5l-17.2,81.3c-1.1,5.4,2.3,10.7,7.7,11.9c0.7,0.1,1.4,0.2,2.1,0.2c4.6,0,8.8-3.2,9.8-7.9l17-80.4
			C144.219,270.058,162.719,296.258,162.719,326.658z M249.519,313.158l-98.4-141.9h141.5L249.519,313.158z M305.319,326.558
			c0,0.3,0,0.5,0,0.8h-39.17l42.37-139.4l35.9,62.1c-4.5,3.2-8.8,6.8-12.7,10.9C314.719,278.458,305.319,301.758,305.319,326.558z
			 M325.119,326.658c0-24.2,11.6-45.7,29.3-59l34.5,59.8h-63.8C325.119,327.158,325.119,326.858,325.119,326.658z M396.519,399.758
			L396.519,399.758c-32.9,0-60-21.7-68.5-52.3h78.3c3.6,0,6.9-1.9,8.7-5s1.8-6.9,0-10l-43-74.4c7.7-2.9,15.9-4.5,24.6-4.5
			c39.4,0,71.4,32.8,71.4,73.1S435.919,399.758,396.519,399.758z"/>
	</g>
</g>
<g>
</g>
<g>
</g>
<g>
</g>
<g>
</g>
<g>
</g>
<g>
</g>
<g>
</g>
<g>
</g>
<g>
</g>
<g>
</g>
<g>
</g>
<g>
</g>
<g>
</g>
<g>
</g>
<g>
</g>
</svg>
